<svg xmlns="http://www.w3.org/2000/svg" viewBox="0 0 850.4 850.4"><title>资源 5</title><g id="图层_2" data-name="图层 2"><g id="图层_1-2" data-name="图层 1"><rect width="850.4" height="850.39" rx="7.6" fill="none"/><path d="M339.3,819.8h-3.5a2.5,2.5,0,0,1-2.3-1.7,5,5,0,0,1-.2-1.2V801.5a3.2,3.2,0,0,1,.3-1.4,2.6,2.6,0,0,1,1.6-1.5H352a2.4,2.4,0,0,1,2.2,1.5,3,3,0,0,1,.2,1v3.4h4.1a2.4,2.4,0,0,1,1.7,2.1v16.9a2.4,2.4,0,0,1-1.9,2.1H340.9a2.3,2.3,0,0,1-1.6-2.3c-.1-1,0-2,0-3Zm3,0v2.1a.7.7,0,0,0,.6.7h13.4a.8.8,0,0,0,.9-.8V808.4a1.1,1.1,0,0,0-.8-.8H343.2c-.5.1-.9.4-.9.9v1.3a.7.7,0,0,0,.5.7h9.9a2.4,2.4,0,0,1,1.7,2.3v4.4a2.5,2.5,0,0,1-.8,1.7,2.4,2.4,0,0,1-1.7.7h-9.6Zm9-15.3v-2.2a.7.7,0,0,0-.7-.6H337.1a.7.7,0,0,0-.6.7v13.5a.8.8,0,0,0,.7.8h13.3a1,1,0,0,0,.8-.9v-1.4c0-.3-.2-.5-.5-.7h-9.7a2.2,2.2,0,0,1-1.8-2.2,33.8,33.8,0,0,1,0-4.5,2.3,2.3,0,0,1,1.4-2.1,2,2,0,0,1,1.1-.3h9.5Z" fill="#fff"/><path d="M406.7,798.7h3.7a1.1,1.1,0,0,1,.1.5v8.3h.3l1.5-.4h14.5a6.3,6.3,0,0,1,5.1,2.4,7.1,7.1,0,0,1,1.5,3.3,4.1,4.1,0,0,1,.1,1.1v4.7a7,7,0,0,1-2,4.9,7.3,7.3,0,0,1-3.5,1.8H413.3a8.1,8.1,0,0,1-2.7-.5,6.9,6.9,0,0,1-3.2-3.1,5.7,5.7,0,0,1-.7-2.2,10.9,10.9,0,0,1-.1-1.8V799.4A2,2,0,0,1,406.7,798.7Zm13.4,22.9h7.2a3.1,3.1,0,0,0,2.3-3c.1-1.4,0-2.8,0-4.2v-1a2.7,2.7,0,0,0-.7-1.4,3,3,0,0,0-2.5-1.2H412.9a3.2,3.2,0,0,0-2.4,3v4.7a1.5,1.5,0,0,0,.1.7,3,3,0,0,0,3,2.4Z" fill="#fff"/><path d="M451.9,825.3H445a6.1,6.1,0,0,1-3.7-1.2,7.3,7.3,0,0,1-2.7-4.2,9.9,9.9,0,0,1-.2-1.7c0-1.4.1-2.9,0-4.3a7,7,0,0,1,1.6-4.4,6.3,6.3,0,0,1,3.4-2.3l1.8-.2h13.4a6.1,6.1,0,0,1,5,2.3,6.4,6.4,0,0,1,1.4,2.2,7.6,7.6,0,0,1,.3,1.6c.1,1.8,0,3.6,0,5.4a8.5,8.5,0,0,1-.3,2.3,7.8,7.8,0,0,1-1.1,2c-.1,0-.1,0-.1.1a6.7,6.7,0,0,1-4.2,2.4h-7.7Zm-.1-3.7h6.7a2.6,2.6,0,0,0,2.1-1,3.1,3.1,0,0,0,.9-2.2v-4.6a3.2,3.2,0,0,0-3.1-3.1H445.3l-1.1.2a3,3,0,0,0-2,2.9V819a3.1,3.1,0,0,0,3.1,2.6Z" fill="#fff"/><path d="M483.8,825.3h-6.7A6.6,6.6,0,0,1,472,823a7.4,7.4,0,0,1-1.6-3.2c0-.4-.1-.8-.1-1.2v-4.9a6.9,6.9,0,0,1,2-4.7,6.7,6.7,0,0,1,4.2-2h14a5.7,5.7,0,0,1,2.2.4,6.3,6.3,0,0,1,3,2.1,8.3,8.3,0,0,1,1.4,3,5.7,5.7,0,0,1,.1,1.3v4.8a7.1,7.1,0,0,1-2.1,4.9,7.2,7.2,0,0,1-3.6,1.8h-7.7Zm-.1-3.7H491a3.1,3.1,0,0,0,2.1-1.9,1.8,1.8,0,0,0,.2-1v-4.9a2.2,2.2,0,0,0-.5-1.6,3.2,3.2,0,0,0-2.7-1.4H477.2a3.1,3.1,0,0,0-3.2,3.2v4.5a2,2,0,0,0,.2,1.1,3.1,3.1,0,0,0,3,2.1Z" fill="#fff"/><path d="M367.2,825.3a.6.6,0,0,1-.1-.4v-3.1a.2.2,0,0,1,.2-.2H375a3.1,3.1,0,0,0,3.1-2.7v-5.1a7.1,7.1,0,0,1,3.2-5.8,9.2,9.2,0,0,1,2.3-.9h9.3c0,.1.1.2.1.3v3.2a.1.1,0,0,1-.1.1h-7.8a3.1,3.1,0,0,0-2.8,1.8,2.9,2.9,0,0,0-.3,1.6v4.2a6.8,6.8,0,0,1-1.8,4.8,6.4,6.4,0,0,1-3.1,2l-1.7.2h-7.7C367.5,825.3,367.3,825.4,367.2,825.3Z" fill="#fff"/><path d="M505.9,825.3h-3.7V813.8a6.2,6.2,0,0,1,.8-3.3,7.5,7.5,0,0,1,2.6-2.7,7.3,7.3,0,0,1,3.3-.8h7.7c.4,0,.5,0,.5.5v2.8c0,.1,0,.1-.1.2s0,.2-.2.2h-7.6a2.8,2.8,0,0,0-1.8.6,3.2,3.2,0,0,0-1.4,2.5v11C506,825,506.1,825.1,505.9,825.3Z" fill="#fff"/><path d="M398,807h3.4c.2,0,.2.1.2.2v17.5c0,.2.1.4-.1.6h-3.4a.4.4,0,0,1-.1-.3V807.7A1.6,1.6,0,0,1,398,807Z" fill="#fff"/><path d="M824,44.7V37.5h1.6v7.2Z" fill="#fff"/><path d="M827.3,57.1l4.7,4.4V54.3h1.6v9.3H832l-4.8-4.5a10.3,10.3,0,0,1-.8,2.8,3.5,3.5,0,0,1-1.3,1.6,3.3,3.3,0,0,1-1.9.6,3.6,3.6,0,0,1-2.2-.7,4.7,4.7,0,0,1-1.6-1.8,7.7,7.7,0,0,1-.8-2.8V57.2l.3-1.6c.2-.4.3-.9.5-1.3h1.8a11.9,11.9,0,0,0-.8,2.2,5.2,5.2,0,0,0-.2,2.2,9.7,9.7,0,0,0,.5,2,3.1,3.1,0,0,0,1,1.2,2.7,2.7,0,0,0,1.5.5,2.1,2.1,0,0,0,1.3-.5,3.4,3.4,0,0,0,.9-1.7,12.3,12.3,0,0,0,.4-3.1Z" fill="#fff"/><path d="M819.5,68.4a5.5,5.5,0,0,1,2.6-1.8,12.7,12.7,0,0,1,4.1-.6,11.6,11.6,0,0,1,4,.6,5.4,5.4,0,0,1,2.7,1.8,4.5,4.5,0,0,1,0,5.4,5.4,5.4,0,0,1-2.7,1.8,11.6,11.6,0,0,1-4,.6,13.1,13.1,0,0,1-4.1-.6,5.5,5.5,0,0,1-2.6-1.8,4.5,4.5,0,0,1,0-5.4Zm1.3,4.5a5.3,5.3,0,0,0,2.1,1.2,13.8,13.8,0,0,0,6.6,0,4.3,4.3,0,0,0,2-1.2,2.4,2.4,0,0,0,.7-1.8,2.7,2.7,0,0,0-1.5-2.5,8.9,8.9,0,0,0-4.5-.9,10.6,10.6,0,0,0-3.3.4,5.3,5.3,0,0,0-2.1,1.2,3,3,0,0,0,0,3.6Z" fill="#fff"/><path d="M819.5,80a5.5,5.5,0,0,1,2.6-1.8,12.7,12.7,0,0,1,4.1-.6,11.6,11.6,0,0,1,4,.6,6,6,0,0,1,2.7,1.7,4.5,4.5,0,0,1,.9,2.8,4.4,4.4,0,0,1-.9,2.7,5.4,5.4,0,0,1-2.7,1.8,11.6,11.6,0,0,1-4,.6,13.1,13.1,0,0,1-4.1-.6,5.5,5.5,0,0,1-2.6-1.8,4.4,4.4,0,0,1-.9-2.7A4,4,0,0,1,819.5,80Zm1.3,4.5a5.3,5.3,0,0,0,2.1,1.2,13.8,13.8,0,0,0,6.6,0,4.3,4.3,0,0,0,2-1.2,2.4,2.4,0,0,0,.7-1.8,2.7,2.7,0,0,0-1.5-2.5,8.9,8.9,0,0,0-4.5-.9,10.6,10.6,0,0,0-3.3.4,4.3,4.3,0,0,0-2.1,1.2,3,3,0,0,0,0,3.6Z" fill="#fff"/><path d="M821.7,96.8l7.2-7.2,1.2,1.1L822.8,98Zm1.1-7.2,7.3,7.2L828.9,98l-7.2-7.3Z" fill="#fff"/><path d="M827.3,103.1l4.7,4.4v-7.2h1.6v9.3H832l-4.8-4.5a9.3,9.3,0,0,1-.8,2.8,3.9,3.9,0,0,1-1.3,1.7,4.1,4.1,0,0,1-1.9.5,4.3,4.3,0,0,1-2.2-.6,5.1,5.1,0,0,1-1.6-1.9,7.1,7.1,0,0,1-.8-2.7v-1.7q.1-.9.3-1.5l.5-1.4h1.8a11.9,11.9,0,0,0-.8,2.2,5.3,5.3,0,0,0-.2,2.2,8.3,8.3,0,0,0,.5,2,3.4,3.4,0,0,0,1,1.3,2.6,2.6,0,0,0,1.5.4,2.1,2.1,0,0,0,1.3-.5,3,3,0,0,0,.9-1.7,12.3,12.3,0,0,0,.4-3.1Z" fill="#fff"/><path d="M819.5,114.4a6.4,6.4,0,0,1,2.6-1.8,12.7,12.7,0,0,1,4.1-.6,11.6,11.6,0,0,1,4,.6,5.4,5.4,0,0,1,2.7,1.8,4.5,4.5,0,0,1,.9,2.8,4.4,4.4,0,0,1-.9,2.7,5.4,5.4,0,0,1-2.7,1.8,11.6,11.6,0,0,1-4,.6,13.1,13.1,0,0,1-4.1-.6,5.5,5.5,0,0,1-2.6-1.8,4.5,4.5,0,0,1-.9-2.8A4.4,4.4,0,0,1,819.5,114.4Zm1.3,4.6a4.2,4.2,0,0,0,2.1,1.1,13.8,13.8,0,0,0,6.6,0,3.5,3.5,0,0,0,2-1.1,2.4,2.4,0,0,0,.7-1.8,2.9,2.9,0,0,0-1.5-2.6,9.1,9.1,0,0,0-4.5-.8,10.6,10.6,0,0,0-3.3.4,4.2,4.2,0,0,0-2.1,1.1,2.9,2.9,0,0,0-.6,1.9A2.8,2.8,0,0,0,820.8,119Z" fill="#fff"/><path d="M819.5,126a5.5,5.5,0,0,1,2.6-1.8,12.7,12.7,0,0,1,4.1-.6,11.6,11.6,0,0,1,4,.6,5.4,5.4,0,0,1,2.7,1.8,4.2,4.2,0,0,1,.9,2.7,4.5,4.5,0,0,1-.9,2.8,6,6,0,0,1-2.7,1.7,11.6,11.6,0,0,1-4,.6,13.1,13.1,0,0,1-4.1-.6,6.2,6.2,0,0,1-2.6-1.7,4.5,4.5,0,0,1-.9-2.8A4.4,4.4,0,0,1,819.5,126Zm1.3,4.6a5.2,5.2,0,0,0,2.1,1.1,13.8,13.8,0,0,0,6.6,0,4.2,4.2,0,0,0,2-1.1,2.8,2.8,0,0,0,.7-1.9,2.7,2.7,0,0,0-1.5-2.5,8.9,8.9,0,0,0-4.5-.9,14.9,14.9,0,0,0-3.3.4,5.3,5.3,0,0,0-2.1,1.2,2.8,2.8,0,0,0-.6,1.8A3.3,3.3,0,0,0,820.8,130.6Z" fill="#fff"/><path d="M819.6,135.6h9.8v1.6H828a7.9,7.9,0,0,1,1.2,1.5,4.2,4.2,0,0,1,.4,2,4.3,4.3,0,0,1-.5,2.3,3.6,3.6,0,0,1-1.6,1.4A3.8,3.8,0,0,1,829,146a4.4,4.4,0,0,1,.6,2.3,5.2,5.2,0,0,1-.4,2.1,3.3,3.3,0,0,1-1.4,1.5,4.8,4.8,0,0,1-2.2.5h-6.8v-1.6h6.6a2.4,2.4,0,0,0,1.5-.4,2,2,0,0,0,.9-.9,2.4,2.4,0,0,0,.4-1.5,3.2,3.2,0,0,0-.6-2,4,4,0,0,0-1.6-1.2h-7.2v-1.6h6.6a3.3,3.3,0,0,0,1.5-.3,2.2,2.2,0,0,0,.9-1,2.4,2.4,0,0,0,.4-1.5,3.4,3.4,0,0,0-.6-2,4.4,4.4,0,0,0-1.5-1.2h-7.3v-1.6Z" fill="#fff"/><path d="M819.6,154.6h9.8v1.6H828a7.9,7.9,0,0,1,1.2,1.5,4,4,0,0,1,.4,2,4.3,4.3,0,0,1-.5,2.3,3.6,3.6,0,0,1-1.6,1.4A3.3,3.3,0,0,1,829,165a4.1,4.1,0,0,1,.6,2.3,4.5,4.5,0,0,1-.4,2,2.6,2.6,0,0,1-1.4,1.5,3.8,3.8,0,0,1-2.2.6h-6.8v-1.6h6.6a3.3,3.3,0,0,0,1.5-.4,2,2,0,0,0,.9-.9,2.4,2.4,0,0,0,.4-1.5,3.2,3.2,0,0,0-.6-2,3.3,3.3,0,0,0-1.6-1.2h-7.2v-1.6h6.6a3.3,3.3,0,0,0,1.5-.3,2.8,2.8,0,0,0,.9-1,2.4,2.4,0,0,0,.4-1.5,3.2,3.2,0,0,0-.6-2,4.4,4.4,0,0,0-1.5-1.2h-7.3v-1.6Z" fill="#fff"/><path d="M832,190.7v-4.5H818.8v-1.7H832V180h1.6v10.7Z" fill="#fff"/><path d="M821.7,192.3a4.4,4.4,0,0,0-1.2,1.5,7.9,7.9,0,0,0-.4,2.3,8.9,8.9,0,0,0,.2,1.5,13,13,0,0,0,.6,1.9h-1.7c-.2-.7-.4-1.4-.5-1.9a8.6,8.6,0,0,1-.1-1.5,6.6,6.6,0,0,1,.7-3.2,4.8,4.8,0,0,1,2-2.2,5.3,5.3,0,0,1,2.8-.7,6.4,6.4,0,0,1,2.8.6,5.2,5.2,0,0,1,2,1.9,5.3,5.3,0,0,1,.7,2.8,4.6,4.6,0,0,1-.7,2.6,4.8,4.8,0,0,1-2.1,1.9,6.7,6.7,0,0,1-3.3.6v-8.7A3.5,3.5,0,0,0,821.7,192.3Zm4.9,5.8a3.4,3.4,0,0,0,1.2-1.2,4.1,4.1,0,0,0,.3-1.6,3.4,3.4,0,0,0-.4-1.8,3,3,0,0,0-2.8-1.8v7A4.3,4.3,0,0,0,826.6,198.1Z" fill="#fff"/><path d="M819.5,208.7l.4-.3.7-.6,2.3-1.8-2.3-1.8-.6-.5-.5-.4-.7-.5v-2.1l.8.7.9.6,3.7,3,3.5-2.8.9-.7.8-.6v2l-.7.6-.4.3-.7.6-2.1,1.6,2.1,1.6.9.8.9.7v2l-.8-.6-.9-.7-3.5-2.8-3.7,3-.9.7a3.2,3.2,0,0,1-.8.6v-2Z" fill="#fff"/><path d="M818.6,217.5a4.1,4.1,0,0,1,.8-2.5,3.8,3.8,0,0,1,3-1.1h9.9v1.5H822a2.1,2.1,0,0,0-1.2.3c-.3.1-.4.4-.5.6a3,3,0,0,0-.2,1,2.8,2.8,0,0,0,.1.9,4.4,4.4,0,0,0,.2,1h-1.6A6.5,6.5,0,0,1,818.6,217.5Zm9.3,1.2v-7h1.5v7Z" fill="#fff"/><path d="M819.9,230.4h-1.1v-1.6h1.4a6.1,6.1,0,0,1-1.2-1.6,4.8,4.8,0,0,1-.4-2.2,5.2,5.2,0,0,1,.4-2.1,4.2,4.2,0,0,1,1.4-1.6,3.8,3.8,0,0,1,2.2-.6h6.8v1.7h-6.6a2.4,2.4,0,0,0-1.5.4,2.2,2.2,0,0,0-.9,1,2.8,2.8,0,0,0-.4,1.5,3.8,3.8,0,0,0,.6,2.2,3.7,3.7,0,0,0,1.5,1.3h7.3v1.6h-9.5Z" fill="#fff"/><path d="M827.8,236.3a5.4,5.4,0,0,0-.7-1.3l-1.1-.8h-7.2v-1.6h10.6v1.6h-1.5l.9,1a6.7,6.7,0,0,1,.6,1.2,7.8,7.8,0,0,1,.2,1.6H828A4.7,4.7,0,0,0,827.8,236.3Z" fill="#fff"/><path d="M821.7,240.7a4,4,0,0,0-1.2,1.6,7.2,7.2,0,0,0-.4,2.2,7.7,7.7,0,0,0,.2,1.5,10.1,10.1,0,0,0,.6,1.9h-1.7a18,18,0,0,1-.5-1.9,7.6,7.6,0,0,1-.1-1.5,6.6,6.6,0,0,1,.7-3.2,4.8,4.8,0,0,1,2-2.2,5.3,5.3,0,0,1,2.8-.7,6.4,6.4,0,0,1,2.8.6,5.2,5.2,0,0,1,2,1.9,5.3,5.3,0,0,1,.7,2.8,5,5,0,0,1-.7,2.7,4.6,4.6,0,0,1-2.1,1.8,5.8,5.8,0,0,1-3.3.6v-8.7A4.8,4.8,0,0,0,821.7,240.7Zm4.9,5.9a6.8,6.8,0,0,0,1.2-1.2,4.7,4.7,0,0,0,.3-1.7,3.4,3.4,0,0,0-.4-1.8,2.5,2.5,0,0,0-1.1-1.2,4.9,4.9,0,0,0-1.7-.6v7A4.2,4.2,0,0,0,826.6,246.6Z" fill="#fff"/><path d="M818.8,259.5h1.9a4.4,4.4,0,0,1-1.5-1.8,4.8,4.8,0,0,1-.6-2.4,5.7,5.7,0,0,1,.7-2.9,6.1,6.1,0,0,1,2-1.9,6.7,6.7,0,0,1,2.8-.6,6.4,6.4,0,0,1,2.8.6,6.1,6.1,0,0,1,2,1.9,5.7,5.7,0,0,1,.7,2.9,4.8,4.8,0,0,1-.6,2.4,4.4,4.4,0,0,1-1.5,1.8H834v1.6H818.8Zm1.8-2a4.4,4.4,0,0,0,1.4,1.3,4.6,4.6,0,0,0,2.1.5h0a4.6,4.6,0,0,0,2.1-.5,4.4,4.4,0,0,0,1.4-1.3,4.7,4.7,0,0,0,0-4.2,3.5,3.5,0,0,0-1.4-1.3,4.7,4.7,0,0,0-4.2,0,3.5,3.5,0,0,0-1.4,1.3,4.7,4.7,0,0,0,0,4.2Z" fill="#fff"/><path d="M833.1,279.1a3.8,3.8,0,0,1-1.5,1.6,4.8,4.8,0,0,1-2.4.6,4.3,4.3,0,0,1-2.4-.6,3.8,3.8,0,0,1-1.5-1.6,4.3,4.3,0,0,1-.6-2.2v-4.4h-5.9v-1.7h14.8v6.1A5.4,5.4,0,0,1,833.1,279.1Zm-6.5-1a2.6,2.6,0,0,0,2.6,1.4,2.7,2.7,0,0,0,1.6-.4,2,2,0,0,0,.9-.9,3.3,3.3,0,0,0,.3-1.5h0v-4.1h-5.7v4.1A4,4,0,0,0,826.6,278.1Z" fill="#fff"/><path d="M820.1,285.4h-1.3v-1.7h14.8v6.1a5.1,5.1,0,0,1-.5,2.2,3.9,3.9,0,0,1-1.5,1.6,4.4,4.4,0,0,1-2.3.6,4.8,4.8,0,0,1-2.2-.5,3.5,3.5,0,0,1-1.4-1.3,4.8,4.8,0,0,1-.6-1.8h0l-1,.6-.8.5-2.9,1.9-.6.3-.4.3-.6.4h0v-2a10.1,10.1,0,0,1,1.6-1l1.6-1,1.6-1.1,1.3-.8v-3.2h-4.8Zm6.7,5.6a2.2,2.2,0,0,0,.9,1,2.5,2.5,0,0,0,1.6.4,3.8,3.8,0,0,0,1.6-.3,2.5,2.5,0,0,0,.8-1,3.7,3.7,0,0,0,.3-1.5h0v-4.1h-5.5v4.1A4,4,0,0,0,826.8,291Z" fill="#fff"/><path d="M819.6,299.9a6.8,6.8,0,0,1,2.7-2.6,7.6,7.6,0,0,1,3.9-1,8,8,0,0,1,6.6,3.6,7.6,7.6,0,0,1,1,3.9,7.1,7.1,0,0,1-1,3.9,6.6,6.6,0,0,1-2.8,2.7,7.9,7.9,0,0,1-3.8.9,8.6,8.6,0,0,1-3.9-.9,6.4,6.4,0,0,1-2.7-2.7,7.1,7.1,0,0,1-1-3.9A7.6,7.6,0,0,1,819.6,299.9Zm1.3,7a5.1,5.1,0,0,0,2.1,2,6.8,6.8,0,0,0,3.2.7,6.2,6.2,0,0,0,3.1-.7,5.3,5.3,0,0,0,2.2-2,5.9,5.9,0,0,0,.7-3.1,5.6,5.6,0,0,0-.7-3,4.7,4.7,0,0,0-2.2-2,6.2,6.2,0,0,0-3.1-.7,7.5,7.5,0,0,0-3.1.6,6.1,6.1,0,0,0-2.2,2,6.2,6.2,0,0,0-.7,3.1A5.9,5.9,0,0,0,820.9,306.9Z" fill="#fff"/><path d="M833.1,329a3.3,3.3,0,0,1-1.5,1.6,4.8,4.8,0,0,1-2.4.6,4.3,4.3,0,0,1-2.4-.6,3.3,3.3,0,0,1-1.5-1.6,4.3,4.3,0,0,1-.6-2.2v-4.4h-5.9v-1.7h14.8v6.1A5.4,5.4,0,0,1,833.1,329Zm-6.5-1a2.2,2.2,0,0,0,.9,1,2.9,2.9,0,0,0,1.7.4,3.8,3.8,0,0,0,1.6-.3,2.8,2.8,0,0,0,.9-1,3.2,3.2,0,0,0,.3-1.4v-4.3h-5.7v4.1A3.3,3.3,0,0,0,826.6,328Z" fill="#fff"/><path d="M820.1,335h-1.3v-1.7H834V335H820.1Z" fill="#fff"/><path d="M818.9,347.2a2.2,2.2,0,0,1-.1-.8,1.8,1.8,0,0,1,.4-1.3,2.1,2.1,0,0,1,1-.6,5.7,5.7,0,0,1-1.2-1.8,4.6,4.6,0,0,1-.4-2.1,4.2,4.2,0,0,1,.4-2,2.5,2.5,0,0,1,1-1.2,2.4,2.4,0,0,1,1.3-.5,2.5,2.5,0,0,1,1.8.5,4.5,4.5,0,0,1,1.5,1.8,15.5,15.5,0,0,1,.7,2.3,22.8,22.8,0,0,1,.2,2.6h.4a2.3,2.3,0,0,0,1.3-.3,1.1,1.1,0,0,0,.7-.8,6.3,6.3,0,0,0,.2-1.6,6.4,6.4,0,0,0-.3-2,14.2,14.2,0,0,0-.8-1.8h1.6a6.2,6.2,0,0,1,.7,1.9,6.4,6.4,0,0,1,.3,2,4.4,4.4,0,0,1-1,3.2,3.4,3.4,0,0,1-2.7,1.1H821l-.5.3a.8.8,0,0,0-.2.5v.5a.8.8,0,0,0,.2.4h-1.6Zm1.5-8.1a2.1,2.1,0,0,0-.4,1.5,3.5,3.5,0,0,0,.5,2,4.9,4.9,0,0,0,1.4,1.5h2.2a17.9,17.9,0,0,0-.2-2.3,6,6,0,0,0-.6-1.9,2.1,2.1,0,0,0-.9-1.1,1.6,1.6,0,0,0-.9-.3A1.7,1.7,0,0,0,820.4,339.1Z" fill="#fff"/><path d="M818.6,353.6a4.1,4.1,0,0,1,.8-2.5,3.8,3.8,0,0,1,3-1.1h9.9v1.5H822a2.1,2.1,0,0,0-1.2.3c-.3.1-.4.4-.5.6a3,3,0,0,0-.2,1,2.8,2.8,0,0,0,.1.9,4.4,4.4,0,0,0,.2,1h-1.6A6.5,6.5,0,0,1,818.6,353.6Zm9.3,1.2v-7h1.5v7Z" fill="#fff"/><path d="M821.7,358.2a4.4,4.4,0,0,0-1.2,1.5,7.9,7.9,0,0,0-.4,2.3,10.4,10.4,0,0,0,.2,1.5,13,13,0,0,0,.6,1.9h-1.7c-.2-.7-.4-1.4-.5-1.9a8.6,8.6,0,0,1-.1-1.5,7.2,7.2,0,0,1,.7-3.3,5.1,5.1,0,0,1,2-2.1,5.4,5.4,0,0,1,2.8-.8,6.4,6.4,0,0,1,2.8.7,4.6,4.6,0,0,1,2,1.9,5.1,5.1,0,0,1,.7,2.8,4.8,4.8,0,0,1-.7,2.6,5.5,5.5,0,0,1-2.1,1.9,6.8,6.8,0,0,1-3.3.5v-8.7A3.6,3.6,0,0,0,821.7,358.2Zm4.9,5.8a3.4,3.4,0,0,0,1.2-1.2,4.1,4.1,0,0,0,.3-1.6,3.4,3.4,0,0,0-.4-1.8,2.4,2.4,0,0,0-1.1-1.3,3.4,3.4,0,0,0-1.7-.5v7A4.3,4.3,0,0,0,826.6,364Z" fill="#fff"/><path d="M824,382.3v-7.2h1.6v7.2Z" fill="#fff"/><path d="M807.6,826.3H793.3a1.8,1.8,0,0,1-1.5-.7,1.9,1.9,0,0,1,0-1.8l3-5.2c3.7-6.7,7.5-13.4,11.3-20.1a1.7,1.7,0,0,1,1.4-1,1.6,1.6,0,0,1,1.5.9l3.8,6.7,10.5,18.7a1.5,1.5,0,0,1-.9,2.4H807.6Zm12.6-3.8-11.8-21.1a1,1,0,0,0-1.7,0l-11.8,21.1a1,1,0,0,0,.8,1.4h23.7A.9.9,0,0,0,820.2,822.5Z" fill="#fff"/><path d="M807.5,822.6h-8.2a.8.8,0,0,1-.8-.9c.1-.3.3-.6.6-.6h16.6a.9.9,0,0,1,1,.7c0,.5-.4.8-1,.8Z" fill="#fff"/><path d="M808.3,810.6a.9.9,0,0,1-.3.5,2.7,2.7,0,0,0-.6,2.3,2.3,2.3,0,0,0,.8,1.2,3.6,3.6,0,0,1,1.1,2.2,3.7,3.7,0,0,1-1.2,3.3.7.7,0,0,1-1.1-1l.4-.6a2.2,2.2,0,0,0-.2-2.8,4.8,4.8,0,0,1-.9-1.1,3.8,3.8,0,0,1,.8-4.7.8.8,0,0,1,.8-.1C808.2,809.9,808.3,810.2,808.3,810.6Z" fill="#fff"/><path d="M804,809.7a.8.8,0,0,1,.7.5c.2.3.1.5-.1.8l-.5.7a2.1,2.1,0,0,0,.3,2.6l.6.7a3.8,3.8,0,0,1-.1,4.8l-.3.3a.9.9,0,0,1-1.1.1.9.9,0,0,1-.1-1.1,2.4,2.4,0,0,0,.6-.8,2,2,0,0,0-.3-2.5l-.5-.6a3.7,3.7,0,0,1,.3-5.2C803.6,809.8,803.8,809.8,804,809.7Z" fill="#fff"/><path d="M811.9,810.6c-.1.1-.2.4-.4.5a2.8,2.8,0,0,0-.6,2,2.5,2.5,0,0,0,.8,1.4,4.9,4.9,0,0,1,1.1,2,3.8,3.8,0,0,1-1.2,3.6.8.8,0,0,1-1,.1.9.9,0,0,1-.1-1.1l.3-.4a2.2,2.2,0,0,0-.2-3.1,3.8,3.8,0,0,1-1.2-2.1,4.3,4.3,0,0,1,1.2-3.6.8.8,0,0,1,.8-.1C811.7,809.9,811.8,810.2,811.9,810.6Z" fill="#fff"/></g></g></svg>