<svg xmlns="http://www.w3.org/2000/svg" viewBox="0 0 992.1 992.1"><title>资源 4</title><g id="图层_2" data-name="图层 2"><g id="图层_1-2" data-name="图层 1"><path d="M991.1,1V991.1H1V1H991.1m1-1H0V992.1H992.1V0Z" fill="#fff"/><path d="M961.1,45.6V38.4h1.6v7.2Z" fill="#fff"/><path d="M964.4,57.9l4.7,4.4V55.1h1.6v9.4h-1.6l-4.8-4.6a10.1,10.1,0,0,1-.8,2.9,4.2,4.2,0,0,1-1.3,1.6,4.2,4.2,0,0,1-1.9.6,4.4,4.4,0,0,1-2.2-.7,4.7,4.7,0,0,1-1.6-1.8,7.7,7.7,0,0,1-.8-2.8V58l.3-1.5.5-1.4h1.8a15.2,15.2,0,0,0-.8,2.2,5.7,5.7,0,0,0-.2,2.3,11.7,11.7,0,0,0,.5,2,4,4,0,0,0,1,1.2,2.6,2.6,0,0,0,1.5.4,1.7,1.7,0,0,0,1.3-.5,3.1,3.1,0,0,0,.9-1.6,13.2,13.2,0,0,0,.4-3.2Z" fill="#fff"/><path d="M969.1,76.9V70.6l-4.3-.5a4.9,4.9,0,0,1,.1,1.2v1.2a6.1,6.1,0,0,1-.7,2.5,4.5,4.5,0,0,1-1.5,1.8,3.7,3.7,0,0,1-2.1.6,4,4,0,0,1-2.4-.7,4.9,4.9,0,0,1-1.7-1.8,7.7,7.7,0,0,1-.8-2.7V70.5a5.4,5.4,0,0,1,.4-1.5,5.8,5.8,0,0,1,.5-1.4h1.8a9.5,9.5,0,0,0-.9,2.1,5.3,5.3,0,0,0-.2,2.2,5.2,5.2,0,0,0,.6,2,2.8,2.8,0,0,0,1.1,1.3,2.9,2.9,0,0,0,1.6.4,2.1,2.1,0,0,0,1.8-.9,4.4,4.4,0,0,0,.9-2.5,12.8,12.8,0,0,0,.1-1.9q-.1-.9-.3-2.1l7.6.9v7.7Z" fill="#fff"/><path d="M956.6,81.5a6.2,6.2,0,0,1,2.6-1.7,12.7,12.7,0,0,1,4.1-.6,11.6,11.6,0,0,1,4,.6,5.3,5.3,0,0,1,2.7,1.7,4.5,4.5,0,0,1,.9,2.8A4.4,4.4,0,0,1,970,87a5.4,5.4,0,0,1-2.7,1.8,11.6,11.6,0,0,1-4,.6,13.1,13.1,0,0,1-4.1-.6,5.5,5.5,0,0,1-2.6-1.8,4.4,4.4,0,0,1-.9-2.7A4.5,4.5,0,0,1,956.6,81.5Zm1.3,4.6a5.3,5.3,0,0,0,2.1,1.2,13.8,13.8,0,0,0,6.6,0,4.3,4.3,0,0,0,2-1.2,2.4,2.4,0,0,0,.7-1.8,2.6,2.6,0,0,0-1.5-2.5,8.9,8.9,0,0,0-4.5-.9,10.6,10.6,0,0,0-3.3.4,4.2,4.2,0,0,0-2.1,1.1,3.1,3.1,0,0,0-.6,1.9A2.8,2.8,0,0,0,957.9,86.1Z" fill="#fff"/><path d="M958.8,98.4l7.2-7.3,1.2,1.2-7.3,7.2Zm1.1-7.3,7.3,7.3L966,99.5l-7.2-7.2Z" fill="#fff"/><path d="M964.4,104.7l4.7,4.4v-7.2h1.6v9.3h-1.6l-4.8-4.5a9.3,9.3,0,0,1-.8,2.8,3.9,3.9,0,0,1-1.3,1.7,4.1,4.1,0,0,1-1.9.5,4.3,4.3,0,0,1-2.2-.6,6,6,0,0,1-1.6-1.9,7.7,7.7,0,0,1-.8-2.7v-1.7q.1-.9.3-1.5c.2-.5.3-1,.5-1.4h1.8a11.9,11.9,0,0,0-.8,2.2,5.2,5.2,0,0,0-.2,2.2,8.3,8.3,0,0,0,.5,2,3.4,3.4,0,0,0,1,1.3,3.7,3.7,0,0,0,1.5.4,2.1,2.1,0,0,0,1.3-.5,3,3,0,0,0,.9-1.7,12.3,12.3,0,0,0,.4-3.1Z" fill="#fff"/><path d="M969.1,123.7v-6.3l-4.3-.5a4.9,4.9,0,0,1,.1,1.2v1.2a6.6,6.6,0,0,1-.7,2.5,5,5,0,0,1-1.5,1.7,3.8,3.8,0,0,1-2.1.7,4.8,4.8,0,0,1-2.4-.7,5.9,5.9,0,0,1-1.7-1.8,8.3,8.3,0,0,1-.8-2.8v-1.7a8.3,8.3,0,0,1,.4-1.5,6.9,6.9,0,0,1,.5-1.3h1.8a12.8,12.8,0,0,0-.9,2.2,5.2,5.2,0,0,0-.2,2.2,5.9,5.9,0,0,0,.6,2A2.6,2.6,0,0,0,959,122a2.3,2.3,0,0,0,1.6.4,2.1,2.1,0,0,0,1.8-.9,4.1,4.1,0,0,0,.9-2.5,10.9,10.9,0,0,0,.1-1.8l-.3-2.2,7.6,1v7.7Z" fill="#fff"/><path d="M956.6,128.3a5.5,5.5,0,0,1,2.6-1.8,12.7,12.7,0,0,1,4.1-.6,11.6,11.6,0,0,1,4,.6,5.4,5.4,0,0,1,2.7,1.8,4.4,4.4,0,0,1,.9,2.7,4.5,4.5,0,0,1-.9,2.8,5.3,5.3,0,0,1-2.7,1.7,11.6,11.6,0,0,1-4,.6,13.1,13.1,0,0,1-4.1-.6,5.4,5.4,0,0,1-2.6-1.7,4.5,4.5,0,0,1-.9-2.8A4.4,4.4,0,0,1,956.6,128.3Zm1.3,4.6A4.2,4.2,0,0,0,960,134a13.8,13.8,0,0,0,6.6,0,3.5,3.5,0,0,0,2-1.1,2.6,2.6,0,0,0,.7-1.9,2.7,2.7,0,0,0-1.5-2.5,8.9,8.9,0,0,0-4.5-.9,14.9,14.9,0,0,0-3.3.4,5.3,5.3,0,0,0-2.1,1.2,2.8,2.8,0,0,0-.6,1.8A3.1,3.1,0,0,0,957.9,132.9Z" fill="#fff"/><path d="M956.7,137.9h9.8v1.6h-1.4a7.9,7.9,0,0,1,1.2,1.5,4.2,4.2,0,0,1,.4,2,4.3,4.3,0,0,1-.5,2.3,3.6,3.6,0,0,1-1.6,1.4,3.8,3.8,0,0,1,1.5,1.6,4.4,4.4,0,0,1,.6,2.3,4.9,4.9,0,0,1-.4,2.1,3.3,3.3,0,0,1-1.4,1.5,4.8,4.8,0,0,1-2.2.5h-6.8v-1.6h6.6a3.3,3.3,0,0,0,1.5-.3,2.8,2.8,0,0,0,.9-1,2.4,2.4,0,0,0,.4-1.5,3.2,3.2,0,0,0-.6-2,4,4,0,0,0-1.6-1.2h-7.2v-1.6h6.6a3.3,3.3,0,0,0,1.5-.3,2.2,2.2,0,0,0,.9-1,2.4,2.4,0,0,0,.4-1.5,3.4,3.4,0,0,0-.6-2,4.4,4.4,0,0,0-1.5-1.2h-7.3v-1.6Z" fill="#fff"/><path d="M956.7,156.9h9.8v1.6h-1.4a7.9,7.9,0,0,1,1.2,1.5,4,4,0,0,1,.4,2,4.3,4.3,0,0,1-.5,2.3,3.6,3.6,0,0,1-1.6,1.4,3.3,3.3,0,0,1,1.5,1.6,4.1,4.1,0,0,1,.6,2.3,4.5,4.5,0,0,1-.4,2,2.6,2.6,0,0,1-1.4,1.5,3.8,3.8,0,0,1-2.2.6h-6.8v-1.6h6.6a3.3,3.3,0,0,0,1.5-.4,2,2,0,0,0,.9-.9,2.4,2.4,0,0,0,.4-1.5,3.2,3.2,0,0,0-.6-2,4,4,0,0,0-1.6-1.2h-7.2v-1.6h6.6a3.3,3.3,0,0,0,1.5-.3,2.8,2.8,0,0,0,.9-1,2.4,2.4,0,0,0,.4-1.5,3.2,3.2,0,0,0-.6-2,4.4,4.4,0,0,0-1.5-1.2h-7.3v-1.6Z" fill="#fff"/><path d="M969.1,193v-4.5H955.9v-1.7h13.2v-4.5h1.6V193Z" fill="#fff"/><path d="M958.8,194.6a4.4,4.4,0,0,0-1.2,1.5,7.9,7.9,0,0,0-.4,2.3,8.9,8.9,0,0,0,.2,1.5,10.1,10.1,0,0,0,.6,1.9h-1.7c-.2-.7-.4-1.4-.5-1.9a8.6,8.6,0,0,1-.1-1.5,6.6,6.6,0,0,1,.7-3.2,4.8,4.8,0,0,1,2-2.2,5.3,5.3,0,0,1,2.8-.7,6.4,6.4,0,0,1,2.8.6,5.2,5.2,0,0,1,2,1.9,5.3,5.3,0,0,1,.7,2.8,4.6,4.6,0,0,1-.7,2.6,4.8,4.8,0,0,1-2.1,1.9,5.8,5.8,0,0,1-3.3.6V194A3.5,3.5,0,0,0,958.8,194.6Zm4.9,5.8a3.4,3.4,0,0,0,1.2-1.2,4.1,4.1,0,0,0,.3-1.6,3.4,3.4,0,0,0-.4-1.8,2.5,2.5,0,0,0-1.1-1.2,2.7,2.7,0,0,0-1.7-.6v7A4.3,4.3,0,0,0,963.7,200.4Z" fill="#fff"/><path d="M956.6,211.1l.4-.4.7-.6,2.3-1.8-2.3-1.8-.6-.5-.5-.4-.7-.5V203l.8.7.9.6,3.7,3,3.5-2.8.9-.6a3,3,0,0,1,.8-.7v2l-.7.6-.4.3-.7.6-2.1,1.6,2.1,1.6.9.8.9.7v2l-.8-.6-.9-.7-3.5-2.8-3.7,3-.9.7-.8.6v-2Z" fill="#fff"/><path d="M955.7,219.8a4.4,4.4,0,0,1,.8-2.5,3.8,3.8,0,0,1,3-1.1h9.9v1.5H959.1a2.1,2.1,0,0,0-1.2.3,1.3,1.3,0,0,0-.5.6,3,3,0,0,0-.2,1,2.8,2.8,0,0,0,.1.9,4.4,4.4,0,0,0,.2,1h-1.6A6.5,6.5,0,0,1,955.7,219.8ZM965,221v-7h1.5v7Z" fill="#fff"/><path d="M957,232.7h-1.1v-1.6h1.4a6.1,6.1,0,0,1-1.2-1.6,4.8,4.8,0,0,1-.4-2.2,5.2,5.2,0,0,1,.4-2.1,4.2,4.2,0,0,1,1.4-1.6,3.8,3.8,0,0,1,2.2-.6h6.8v1.7h-6.6a2.4,2.4,0,0,0-1.5.4,2.2,2.2,0,0,0-.9,1,2.8,2.8,0,0,0-.4,1.5,3.8,3.8,0,0,0,.6,2.2,3.7,3.7,0,0,0,1.5,1.3h7.3v1.6H957Z" fill="#fff"/><path d="M964.9,238.6a5.4,5.4,0,0,0-.7-1.3l-1.1-.8h-7.2v-1.6h10.6v1.6H965l.9,1a6.7,6.7,0,0,1,.6,1.2,7.8,7.8,0,0,1,.2,1.6h-1.6A4.7,4.7,0,0,0,964.9,238.6Z" fill="#fff"/><path d="M958.8,243.1a3.1,3.1,0,0,0-1.2,1.5,7.2,7.2,0,0,0-.4,2.2,7.7,7.7,0,0,0,.2,1.5,10.1,10.1,0,0,0,.6,1.9h-1.7a18,18,0,0,1-.5-1.9,7.6,7.6,0,0,1-.1-1.5,6.6,6.6,0,0,1,.7-3.2,4.8,4.8,0,0,1,2-2.2,5.3,5.3,0,0,1,2.8-.7,6.4,6.4,0,0,1,2.8.6,5.2,5.2,0,0,1,2,1.9,5.5,5.5,0,0,1,.7,2.8,5,5,0,0,1-.7,2.7,4.6,4.6,0,0,1-2.1,1.8,5.8,5.8,0,0,1-3.3.6v-8.7A3.6,3.6,0,0,0,958.8,243.1Zm4.9,5.8a3.4,3.4,0,0,0,1.2-1.2,4.7,4.7,0,0,0,.3-1.7,3.4,3.4,0,0,0-.4-1.8,2.5,2.5,0,0,0-1.1-1.2,4.9,4.9,0,0,0-1.7-.6v7A3.1,3.1,0,0,0,963.7,248.9Z" fill="#fff"/><path d="M955.9,261.8h1.9a4.9,4.9,0,0,1-1.5-1.7,5.4,5.4,0,0,1-.6-2.5,5.7,5.7,0,0,1,.7-2.9,6.1,6.1,0,0,1,2-1.9,6.7,6.7,0,0,1,2.8-.6,6.4,6.4,0,0,1,2.8.6,6.1,6.1,0,0,1,2,1.9,5.7,5.7,0,0,1,.7,2.9,5.4,5.4,0,0,1-.6,2.5,4.9,4.9,0,0,1-1.5,1.7h6.5v1.6H955.9Zm1.8-2a4.4,4.4,0,0,0,1.4,1.3,4.6,4.6,0,0,0,2.1.5h0a4.6,4.6,0,0,0,2.1-.5,3.5,3.5,0,0,0,1.4-1.3,4.7,4.7,0,0,0,0-4.2,4.4,4.4,0,0,0-1.4-1.3,4.7,4.7,0,0,0-4.2,0,3.5,3.5,0,0,0-1.4,1.3,4.7,4.7,0,0,0,0,4.2Z" fill="#fff"/><path d="M970.2,281.4a3.8,3.8,0,0,1-1.5,1.6,4.8,4.8,0,0,1-2.4.6,4.3,4.3,0,0,1-2.4-.6,3.8,3.8,0,0,1-1.5-1.6,4.3,4.3,0,0,1-.6-2.2v-4.4h-5.9v-1.7h14.8v6.1A5.4,5.4,0,0,1,970.2,281.4Zm-6.5-1a2.2,2.2,0,0,0,.9,1,2.9,2.9,0,0,0,1.7.4,2.7,2.7,0,0,0,1.6-.4,2,2,0,0,0,.9-.9,3.3,3.3,0,0,0,.3-1.5h0v-4.1h-5.7v4.1A3.3,3.3,0,0,0,963.7,280.4Z" fill="#fff"/><path d="M957.2,287.7h-1.3V286h14.8v6.1a5.1,5.1,0,0,1-.5,2.2,3.9,3.9,0,0,1-1.5,1.6,4.4,4.4,0,0,1-2.3.6,4.8,4.8,0,0,1-2.2-.5,3.5,3.5,0,0,1-1.4-1.3,4.8,4.8,0,0,1-.6-1.8h0l-1,.6-.8.5-2.9,1.9-.6.3-.4.3-.6.4h0v-2a10.1,10.1,0,0,1,1.6-1l1.6-1,1.6-1.1,1.3-.8v-3.2h-4.8Zm6.7,5.6a2.2,2.2,0,0,0,.9,1,2.5,2.5,0,0,0,1.6.4,3.8,3.8,0,0,0,1.6-.3,2.5,2.5,0,0,0,.8-1,3.7,3.7,0,0,0,.3-1.5h0v-4.1h-5.5v4.1A4,4,0,0,0,963.9,293.3Z" fill="#fff"/><path d="M956.7,302.3a6.4,6.4,0,0,1,2.7-2.7,8.7,8.7,0,0,1,3.9-1,8,8,0,0,1,3.8,1,6.6,6.6,0,0,1,2.8,2.7,7,7,0,0,1,1,3.8,7.7,7.7,0,0,1-1,4,7,7,0,0,1-2.8,2.6,7.9,7.9,0,0,1-3.8.9,8.6,8.6,0,0,1-3.9-.9,6.4,6.4,0,0,1-2.7-2.7,7.1,7.1,0,0,1-1-3.9A7,7,0,0,1,956.7,302.3Zm1.3,6.9a4.5,4.5,0,0,0,2.1,2,6.8,6.8,0,0,0,3.2.7,6.2,6.2,0,0,0,3.1-.7,4.7,4.7,0,0,0,2.2-2,5.9,5.9,0,0,0,.7-3.1,5.8,5.8,0,0,0-.7-3,4.7,4.7,0,0,0-2.2-2,7.2,7.2,0,0,0-6.2,0,4.7,4.7,0,0,0-2.2,2,5.8,5.8,0,0,0-.7,3A5.9,5.9,0,0,0,958,309.2Z" fill="#fff"/><path d="M970.2,331.3a3.3,3.3,0,0,1-1.5,1.6,4.8,4.8,0,0,1-2.4.6,4.3,4.3,0,0,1-2.4-.6,3.3,3.3,0,0,1-1.5-1.6,4.3,4.3,0,0,1-.6-2.2v-4.4h-5.9V323h14.8v6.1A5.4,5.4,0,0,1,970.2,331.3Zm-6.5-1a2.2,2.2,0,0,0,.9,1,2.9,2.9,0,0,0,1.7.4,3.8,3.8,0,0,0,1.6-.3,2.8,2.8,0,0,0,.9-1,3.2,3.2,0,0,0,.3-1.4v-4.3h-5.7v4.1A3.3,3.3,0,0,0,963.7,330.3Z" fill="#fff"/><path d="M957.2,337.3h-1.3v-1.7h15.2v1.7H957.2Z" fill="#fff"/><path d="M956,349.5a2.2,2.2,0,0,1-.1-.8,1.8,1.8,0,0,1,.4-1.3,2.1,2.1,0,0,1,1-.6,5.7,5.7,0,0,1-1.2-1.8,4.6,4.6,0,0,1-.4-2.1,4.2,4.2,0,0,1,.4-2,3.1,3.1,0,0,1,1-1.2,2.4,2.4,0,0,1,1.3-.5,2.5,2.5,0,0,1,1.8.5,4.5,4.5,0,0,1,1.5,1.8,15.5,15.5,0,0,1,.7,2.3,22.8,22.8,0,0,1,.2,2.6h.4a2.3,2.3,0,0,0,1.3-.3,1.1,1.1,0,0,0,.7-.8,6.3,6.3,0,0,0,.2-1.6,6.4,6.4,0,0,0-.3-2,14.2,14.2,0,0,0-.8-1.8h1.6a6.2,6.2,0,0,1,.7,1.9,6.4,6.4,0,0,1,.3,2,4.4,4.4,0,0,1-1,3.2A3.4,3.4,0,0,1,963,348h-4.9l-.5.3a.8.8,0,0,0-.2.5v.5a.8.8,0,0,0,.2.4H956Zm1.5-8.1a2.1,2.1,0,0,0-.4,1.5,3.5,3.5,0,0,0,.5,2,4.9,4.9,0,0,0,1.4,1.5h2.2a17.9,17.9,0,0,0-.2-2.3,6,6,0,0,0-.6-1.9,2.1,2.1,0,0,0-.9-1.1,1.6,1.6,0,0,0-.9-.3A1.7,1.7,0,0,0,957.5,341.4Z" fill="#fff"/><path d="M955.7,355.9a4.4,4.4,0,0,1,.8-2.5,3.8,3.8,0,0,1,3-1.1h9.9v1.5H959.1a2.1,2.1,0,0,0-1.2.3,1.3,1.3,0,0,0-.5.6,3,3,0,0,0-.2,1,2.8,2.8,0,0,0,.1.9,4.4,4.4,0,0,0,.2,1h-1.6A6.5,6.5,0,0,1,955.7,355.9Zm9.3,1.2v-7h1.5v7Z" fill="#fff"/><path d="M958.8,360.5a4.4,4.4,0,0,0-1.2,1.5,7.9,7.9,0,0,0-.4,2.3,10.4,10.4,0,0,0,.2,1.5,13,13,0,0,0,.6,1.9h-1.7c-.2-.7-.4-1.4-.5-1.9a8.6,8.6,0,0,1-.1-1.5,7.2,7.2,0,0,1,.7-3.3,5.1,5.1,0,0,1,2-2.1,5.4,5.4,0,0,1,2.8-.8,6.4,6.4,0,0,1,2.8.7,4.6,4.6,0,0,1,2,1.9,5.1,5.1,0,0,1,.7,2.8,4.8,4.8,0,0,1-.7,2.6,5.5,5.5,0,0,1-2.1,1.9,5.8,5.8,0,0,1-3.3.5v-8.7A3.6,3.6,0,0,0,958.8,360.5Zm4.9,5.8a3.4,3.4,0,0,0,1.2-1.2,4.1,4.1,0,0,0,.3-1.6,3.4,3.4,0,0,0-.4-1.8,2.8,2.8,0,0,0-1.1-1.3,3.4,3.4,0,0,0-1.7-.5v7A4.3,4.3,0,0,0,963.7,366.3Z" fill="#fff"/><path d="M961.1,384.6v-7.2h1.6v7.2Z" fill="#fff"/><path d="M410.1,960.8h-3.4a2.3,2.3,0,0,1-2.3-1.7,3.6,3.6,0,0,1-.2-1.1V942.5a5.9,5.9,0,0,1,.2-1.4,2.3,2.3,0,0,1,1.7-1.5h16.8a2.4,2.4,0,0,1,2.1,1.5,1.5,1.5,0,0,1,.2.9v3a.9.9,0,0,0,.1.5h4.1a2.2,2.2,0,0,1,1.6,2.1,1.3,1.3,0,0,1,.1.6v16.3a2.2,2.2,0,0,1-2,2H411.8a2.5,2.5,0,0,1-1.7-2.3v-3.5Zm3.1-.1a16.1,16.1,0,0,0,0,2.2.7.7,0,0,0,.6.7h13.4c.4,0,.9-.2.8-.8V949.4a.8.8,0,0,0-.7-.8H414.1a.8.8,0,0,0-.9.9v1.3a.7.7,0,0,0,.5.7h9.9a2.3,2.3,0,0,1,1.6,2.3v4.4a2,2,0,0,1-.7,1.6,2.3,2.3,0,0,1-1.7.7h-9.6Zm9-15.2v-2c0-.1,0-.2-.1-.2s-.3-.6-.6-.6H408a.8.8,0,0,0-.7.7v13.5a.8.8,0,0,0,.8.7c.1.1.2,0,.3,0H421c.1,0,.2.1.3,0a.8.8,0,0,0,.9-.8v-1.4a.8.8,0,0,0-.5-.7h-9a2.2,2.2,0,0,1-.8,0,2.4,2.4,0,0,1-1.8-2.2v-4.5a2.3,2.3,0,0,1,1.4-2.1,2.7,2.7,0,0,1,1.2-.3h9.5Z" fill="#fff"/><path d="M477.5,939.7h3.8c.1.2,0,.4,0,.5v8.2h.3l1.6-.5h14.5a6.4,6.4,0,0,1,5.1,2.4,7.1,7.1,0,0,1,1.5,3.3,4.1,4.1,0,0,1,.1,1.1v4.7a7,7,0,0,1-2,4.9,7.8,7.8,0,0,1-3.5,1.8H484.1a5.8,5.8,0,0,1-2.6-.6,6.8,6.8,0,0,1-3.3-3,18.7,18.7,0,0,1-.7-2.2V940.4A1.6,1.6,0,0,1,477.5,939.7Zm13.4,22.9h7.3a3.2,3.2,0,0,0,2.3-3.1v-4.1a3.4,3.4,0,0,0-.1-1,1.8,1.8,0,0,0-.6-1.4,3.2,3.2,0,0,0-2.6-1.2H483.7a3.2,3.2,0,0,0-2.4,3v4.7c0,.3.1.5.1.7a3.2,3.2,0,0,0,3,2.4Z" fill="#fff"/><path d="M522.7,966.3h-6.8a6.2,6.2,0,0,1-3.7-1.3,6.5,6.5,0,0,1-2.8-4.1,9.7,9.7,0,0,1-.1-1.7v-4.4a6.8,6.8,0,0,1,1.5-4.3,7.1,7.1,0,0,1,3.4-2.3l1.9-.2h13.4a6.1,6.1,0,0,1,5,2.3,6.4,6.4,0,0,1,1.4,2.2l.3,1.6c.1,1.8,0,3.6,0,5.4a5.9,5.9,0,0,1-.4,2.3,4.5,4.5,0,0,1-1.1,1.9v.2a7.1,7.1,0,0,1-4.2,2.4h-7.7Zm0-3.7h6.6a2.7,2.7,0,0,0,2.2-1,3.2,3.2,0,0,0,.9-2.3v-4.5a3.3,3.3,0,0,0-3.1-3.1H516.1l-1,.2a3.1,3.1,0,0,0-2.1,2.9v4.7a1.1,1.1,0,0,0,.1.5,3,3,0,0,0,3,2.6Z" fill="#fff"/><path d="M554.6,966.3h-6.7a6.4,6.4,0,0,1-5-2.3,5.8,5.8,0,0,1-1.6-3.2,4.9,4.9,0,0,1-.1-1.2v-4.9a6.8,6.8,0,0,1,1.9-4.7,6.9,6.9,0,0,1,4.2-2h14a6.2,6.2,0,0,1,2.3.4,6.3,6.3,0,0,1,3,2.1,7.6,7.6,0,0,1,1.4,3c0,.4.1.9.1,1.3v4.8a6.8,6.8,0,0,1-5.8,6.7h-7.7Zm-.1-3.7h7.4a3.3,3.3,0,0,0,2.1-1.9,4.4,4.4,0,0,0,.2-1v-4.9a3.4,3.4,0,0,0-.5-1.7,3.5,3.5,0,0,0-2.7-1.3H548.1a3.3,3.3,0,0,0-2.2.8,3.2,3.2,0,0,0-1.1,2.4,33.8,33.8,0,0,1,0,4.5,3.6,3.6,0,0,0,.2,1.1,3.3,3.3,0,0,0,3,2.1Z" fill="#fff"/><path d="M438,966.2v-3.4l.2-.2h7.7a3,3,0,0,0,3-2.7,1.7,1.7,0,0,0,.1-.7v-4.4a6.7,6.7,0,0,1,3.1-5.8,6.5,6.5,0,0,1,2.3-.9h8.8c.2,0,.4-.1.6,0v3.5h-7.9a3.2,3.2,0,0,0-2.8,1.8,3.9,3.9,0,0,0-.2,1.5v4.3a7,7,0,0,1-1.8,4.8A6,6,0,0,1,448,966a5.2,5.2,0,0,1-1.8.3H438Z" fill="#fff"/><path d="M576.8,966.3h-3.7c0-.1-.1-.1-.1-.2V954.7a7.3,7.3,0,0,1,3.5-5.9,7.2,7.2,0,0,1,3.2-.8h7.7c.5,0,.5,0,.5.4v3.1a.2.2,0,0,1-.2.2h-7.6a3.3,3.3,0,0,0-1.9.6,3,3,0,0,0-1.3,2.5v11A.9.9,0,0,1,576.8,966.3Z" fill="#fff"/><path d="M468.9,948h3.4a.2.2,0,0,1,.2.2v17.5c0,.2.1.4-.1.6h-3.5a.4.4,0,0,0-.1-.3V948.7A1.7,1.7,0,0,1,468.9,948Z" fill="#fff"/><path d="M885.2,967.3H871a1.5,1.5,0,0,1-1.5-.8,1.5,1.5,0,0,1,0-1.7l2.9-5.2c3.8-6.7,7.6-13.4,11.3-20.1a1.6,1.6,0,0,1,1.4-1,1.8,1.8,0,0,1,1.6.9c1.2,2.2,2.5,4.4,3.7,6.7L901,964.8a1.6,1.6,0,0,1-1,2.4H885.2Zm12.7-3.8L886,942.4a.9.9,0,0,0-1.6,0l-11.8,21.1a.9.9,0,0,0,.8,1.4h23.7A1,1,0,0,0,897.9,963.5Z" fill="#fff"/><path d="M885.2,963.6H877c-.6,0-1-.4-.8-.9a.6.6,0,0,1,.6-.6h16.5c.7,0,1,.2,1,.7s-.3.8-1,.8Z" fill="#fff"/><path d="M886,951.6l-.3.5a2.2,2.2,0,0,0-.6,2.3,3.7,3.7,0,0,0,.7,1.2,3.7,3.7,0,0,1,1.2,2.2,4.1,4.1,0,0,1-1.3,3.3.7.7,0,0,1-1,0,.8.8,0,0,1-.1-1l.5-.6a2.1,2.1,0,0,0-.3-2.8,4.4,4.4,0,0,1-.8-1.1,3.7,3.7,0,0,1,.7-4.7.8.8,0,0,1,.8-.1A.8.8,0,0,1,886,951.6Z" fill="#fff"/><path d="M881.6,950.7a.9.9,0,0,1,.8.5.8.8,0,0,1-.1.8l-.6.7a2.3,2.3,0,0,0,.3,2.5l.6.8a3.5,3.5,0,0,1-.1,4.7l-.3.4a.7.7,0,0,1-1,0,.8.8,0,0,1-.1-1l.6-.8a2.3,2.3,0,0,0-.3-2.5l-.6-.6a3.7,3.7,0,0,1,.4-5.2C881.3,950.8,881.5,950.8,881.6,950.7Z" fill="#fff"/><path d="M889.5,951.6l-.3.5a2.3,2.3,0,0,0,.1,3.4,3.3,3.3,0,0,1,1.1,2,4,4,0,0,1-1.1,3.6.7.7,0,0,1-1,0,.8.8,0,0,1-.2-1l.4-.4a2.3,2.3,0,0,0-.2-3.1,4.5,4.5,0,0,1-1.3-2.2,4,4,0,0,1,1.3-3.5.8.8,0,0,1,.8-.1C889.4,950.9,889.5,951.2,889.5,951.6Z" fill="#fff"/></g></g></svg>